HIERARCHY
ROOT root
{
	OFFSET	0	13.1	24.9
	CHANNELS 6  Xposition Yposition Zposition Xrotation Yrotation Zrotation
	JOINT spine_1
	{
		OFFSET	0	9.99999	0
		CHANNELS 3  Xrotation Yrotation Zrotation
		JOINT spine_2
		{
			OFFSET	0	112	-10
			CHANNELS 3  Xrotation Yrotation Zrotation
			JOINT spine_3
			{
				OFFSET	0	206.5	19.3
				CHANNELS 3  Xrotation Yrotation Zrotation
				JOINT spine_4
				{
					OFFSET	0	110.4	14.6
					CHANNELS 3  Xrotation Yrotation Zrotation
					JOINT neck_1
					{
						OFFSET	0	71.8	-50.3
						CHANNELS 3  Xrotation Yrotation Zrotation
						JOINT neck_2
						{
							OFFSET	0	86.2	-25.8
							CHANNELS 3  Xrotation Yrotation Zrotation
							JOINT head_ee
							{
								OFFSET	0	179.8	-8.7
								CHANNELS 3  Xrotation Yrotation Zrotation
								End Site
								{
									OFFSET	1	0	0
								}
							}
						}
					}
					JOINT left_clavicle
					{
						OFFSET	-43.2	22.4	-70.8
						CHANNELS 3  Xrotation Yrotation Zrotation
						JOINT left_shoulder
						{
							OFFSET	-93.9	-5.79999	48.7
							CHANNELS 3  Xrotation Yrotation Zrotation
							JOINT left_elbow
							{
								OFFSET	-291.4	-30.8	15.2
								CHANNELS 3  Xrotation Yrotation Zrotation
								JOINT left_lowarm_twist
								{
									OFFSET	-110.7	-3.89999	13.6
									CHANNELS 3  Xrotation Yrotation Zrotation
									JOINT left_hand
									{
										OFFSET	-110.7	-3.89999	13.6
										CHANNELS 3  Xrotation Yrotation Zrotation
										JOINT left_ee
										{
											OFFSET	-80.8	-5.10001	12.1
											CHANNELS 3  Xrotation Yrotation Zrotation
											End Site
											{
												OFFSET	1	0	0
											}
										}
									}
								}
							}
						}
					}
					JOINT right_clavicle
					{
						OFFSET	43.2	22.4	-70.8
						CHANNELS 3  Xrotation Yrotation Zrotation
						JOINT right_shoulder
						{
							OFFSET	93.9	-5.79999	48.7
							CHANNELS 3  Xrotation Yrotation Zrotation
							JOINT right_elbow
							{
								OFFSET	291.4	-30.8	15.2
								CHANNELS 3  Xrotation Yrotation Zrotation
								JOINT right_lowarm_twist
								{
									OFFSET	110.7	-3.89999	13.6
									CHANNELS 3  Xrotation Yrotation Zrotation
									JOINT right_hand
									{
										OFFSET	110.7	-3.89999	13.6
										CHANNELS 3  Xrotation Yrotation Zrotation
										JOINT right_ee
										{
											OFFSET	80.8	-5.10001	12.1
											CHANNELS 3  Xrotation Yrotation Zrotation
											End Site
											{
												OFFSET	1	0	0
											}
										}
									}
								}
							}
						}
					}
				}
			}
		}
	}
	JOINT left_hip
	{
		OFFSET	-82.8	-127.5	0.300001
		CHANNELS 3  Xrotation Yrotation Zrotation
		JOINT left_knee
		{
			OFFSET	-28.2	-396.7	2.2
			CHANNELS 3  Xrotation Yrotation Zrotation
			JOINT left_ankle
			{
				OFFSET	-11.7	-411.3	35.4
				CHANNELS 3  Xrotation Yrotation Zrotation
				JOINT left_toes
				{
					OFFSET	0	-60	-88.6
					CHANNELS 3  Xrotation Yrotation Zrotation
					JOINT left_foot_ee
					{
						OFFSET	-22.5	-16.5	-42.2
						CHANNELS 3  Xrotation Yrotation Zrotation
						End Site
						{
							OFFSET	1	0	0
						}
					}
				}
			}
		}
	}
	JOINT right_hip
	{
		OFFSET	82.8	-127.5	0.300001
		CHANNELS 3  Xrotation Yrotation Zrotation
		JOINT right_knee
		{
			OFFSET	28.2	-396.7	2.2
			CHANNELS 3  Xrotation Yrotation Zrotation
			JOINT right_ankle
			{
				OFFSET	11.7	-411.3	35.4
				CHANNELS 3  Xrotation Yrotation Zrotation
				JOINT right_toes
				{
					OFFSET	0	-60	-88.6
					CHANNELS 3  Xrotation Yrotation Zrotation
					JOINT right_foot_ee
					{
						OFFSET	22.5	-16.5	-42.2
						CHANNELS 3  Xrotation Yrotation Zrotation
						End Site
						{
							OFFSET	1	0	0
						}
					}
				}
			}
		}
	}
}
MOTION
Frames: 13
Frame Time: 0.02
472.176236355 704.526 -1209.28466902 177.972169361 -47.469111897 -178.151863422 -1.26578 -0.841595 -2.41689 -1.26279 -0.686145 -2.4655 -1.2298 -0.0980641 -2.55726 -1.23857 -0.500577 -2.50974 -5.63203 7.33287 9.70423 -5.38177 6.29877 11.1363 -0.0 0.0 -0.0 10.9607 -3.64647 21.8425 -20.1567 -22.9069 57.0701 1.24682 -31.6998 0.354001 3.58293 0.112388 -0.44377 -0.530655 2.98908 -2.25726 -0.0 0.0 -0.0 10.2829 6.50337 -20.4516 -31.7056 17.8689 -48.3838 0.891821 23.8347 -0.188222 20.7575 -0.258508 2.62451 -0.220816 -1.11868 0.99921 0.0 0.0 0.0 2.33938 7.04216 -4.17003 -21.6876 0.27177 3.29719 34.4899 -8.75446 -4.48839 -12.8943 0.0 0.0 -0.0 0.0 -0.0 15.3714 -0.566243 -0.076118 -36.6701 0.268626 -5.52647 12.3432 -27.817 1.85225 9.12326 -0.0 -0.0 0.0 0.0 0.0 
478.634615426 700.961 -1207.93896164 178.08146069 -47.4871991732 -177.778951972 -1.2747 -0.898858 -2.47697 -1.27159 -0.739473 -2.5291 -1.23526 -0.135061 -2.63146 -1.2445 -0.548817 -2.57717 -5.60678 7.63926 9.7619 -5.35386 6.81637 11.2476 -0.0 0.0 -0.0 10.9254 -3.75177 21.7706 -19.4438 -23.9627 56.9928 1.31616 -33.1022 0.391157 3.30076 0.104547 -0.40858 -0.504018 2.83851 -2.14561 -0.0 0.0 -0.0 10.1959 6.38525 -20.2623 -31.728 17.6336 -48.4884 0.880301 23.5606 -0.183592 21.1037 -0.25471 2.66856 -0.153478 -0.853025 0.663374 0.0 0.0 0.0 -0.374922 7.34193 -3.6206 -16.8391 0.319878 2.55504 34.3787 -8.02271 -4.4632 -12.9596 0.0 0.0 -0.0 0.0 -0.0 17.1808 0.0577454 -0.109999 -34.3988 0.149395 -5.19853 12.2632 -27.0249 1.83167 9.13558 -0.0 -0.0 0.0 0.0 0.0 
490.464347021 701.096 -1202.63718567 176.094352718 -47.4533633556 -179.213736365 -1.57086 -0.929516 -2.4284 -1.56791 -0.773157 -2.48258 -1.5305 -0.165241 -2.59486 -1.53944 -0.572845 -2.53627 -6.42502 7.68295 9.90973 -6.16498 6.96723 11.4172 -0.0 0.0 -0.0 10.815 -3.83648 21.5362 -18.0868 -25.4508 57.4184 1.44749 -35.64 0.465317 2.90045 0.0931251 -0.358721 -0.483282 2.62455 -2.10012 -0.0 0.0 -0.0 9.99175 5.97884 -19.8182 -31.9873 17.268 -48.671 0.87293 23.3846 -0.180656 21.4636 -0.250479 2.71434 -0.102844 -0.649174 0.412182 0.0 0.0 0.0 -3.79898 7.64693 -2.35155 -13.6634 0.317301 2.06787 33.3065 -7.39451 -4.34446 -13.2174 0.0 0.0 -0.0 0.0 -0.0 19.7861 0.313831 -1.04988 -31.9996 0.0377054 -4.8474 12.0037 -26.2074 1.78572 9.13667 -0.0 -0.0 0.0 0.0 0.0 
496.914481756 718.405 -1202.7921821 175.544442261 -47.4848447522 -179.281747997 -1.67689 -0.901864 -2.63156 -1.67333 -0.732645 -2.68356 -1.63445 -0.0733251 -2.78074 -1.64487 -0.511405 -2.73433 -6.98535 7.72864 9.99918 -6.7213 7.11077 11.5269 -0.0 0.0 -0.0 10.648 -3.77089 21.1757 -17.1459 -26.3899 57.6542 1.54607 -37.445 0.52402 2.6226 0.0849931 -0.324162 -0.469082 2.4486 -2.08149 -0.0 0.0 -0.0 9.90368 5.67344 -19.6258 -32.1284 17.0567 -48.9343 0.866773 23.2372 -0.17822 21.716 -0.24734 2.74643 -0.067393 -0.506586 0.236049 0.0 0.0 0.0 -5.10582 7.74744 -1.56477 -10.8255 0.292162 1.6332 32.5531 -6.92066 -4.25954 -13.4017 0.0 0.0 -0.0 0.0 -0.0 20.3672 0.618282 -1.40572 -30.6298 -0.0194284 -4.64495 11.8266 -25.6072 1.75439 9.15392 -0.0 -0.0 0.0 0.0 0.0 
507.338336639 716.035 -1202.82592465 175.340558349 -48.041994675 -179.12716597 -1.82286 -0.741258 -2.76394 -1.81879 -0.56395 -2.80547 -1.78627 0.127327 -2.85871 -1.79753 -0.325565 -2.84298 -7.43409 7.76529 9.98858 -7.1716 7.28675 11.5348 -0.0 0.0 -0.0 10.711 -3.59023 21.3042 -16.4811 -27.0436 57.9679 1.62401 -38.8132 0.572149 2.32899 0.076217 -0.287684 -0.477566 2.30286 -2.20035 -0.0 0.0 -0.0 9.70611 5.52302 -19.2019 -32.3884 16.8034 -49.0285 0.855902 22.9762 -0.173953 21.9641 -0.244117 2.77796 -0.0548653 -0.549783 0.134284 0.0 0.0 0.0 -6.22596 7.73935 -2.66175 -8.69596 0.259178 1.30812 31.7648 -6.48212 -4.17085 -13.5624 0.0 0.0 -0.0 0.0 -0.0 21.314 1.40439 0.0436623 -28.8472 -0.0864929 -4.37961 11.9502 -25.0614 1.76666 9.16223 -0.0 -0.0 0.0 0.0 0.0 
514.164795247 712.32 -1197.34182094 176.082925725 -52.4143351189 -178.10245935 -1.38708 -0.578647 -3.07549 -1.3819 -0.381869 -3.10604 -1.35625 0.353326 -3.10941 -1.36972 -0.141934 -3.12619 -6.58385 8.5153 10.405 -6.29853 8.1841 12.0717 -0.0 0.0 -0.0 10.6923 -3.39951 21.2572 -14.4662 -27.3709 57.534 1.80689 -41.8271 0.690522 1.82444 0.0606998 -0.225106 -0.472072 1.6319 -2.45208 -0.0 0.0 -0.0 9.58056 4.23454 -18.9172 -32.6594 16.0906 -49.8878 0.767124 20.8073 -0.140846 22.8377 -0.231682 2.88886 -0.10037 -1.53684 0.0209547 0.0 0.0 0.0 -7.8128 7.91861 -1.87028 -4.55457 0.160548 0.680369 30.2647 -5.39627 -3.9961 -13.9189 0.0 0.0 -0.0 0.0 -0.0 26.2448 0.57683 -2.06081 -23.2339 -0.243237 -3.53276 12.2895 -24.0263 1.80492 8.97023 -0.0 -0.0 0.0 0.0 0.0 
514.234367681 712.32 -1198.66546498 176.027033865 -53.0312298531 -178.172699437 -1.38708 -0.578647 -3.07549 -1.3819 -0.381869 -3.10604 -1.35625 0.353326 -3.10941 -1.36972 -0.141934 -3.12619 -6.58385 8.5153 10.405 -6.29853 8.1841 12.0717 -0.0 0.0 -0.0 10.6923 -3.39951 21.2572 -14.4662 -27.3709 57.534 1.80689 -41.8271 0.690522 1.82444 0.0606998 -0.225106 -0.472072 1.6319 -2.45208 -0.0 0.0 -0.0 9.58056 4.23454 -18.9172 -32.6594 16.0906 -49.8878 0.767124 20.8073 -0.140846 22.8377 -0.231682 2.88886 -0.10037 -1.53684 0.0209547 0.0 0.0 0.0 -7.8128 7.91861 -1.87028 -4.55457 0.160548 0.680369 30.2647 -5.39627 -3.9961 -13.9189 0.0 0.0 -0.0 0.0 -0.0 26.2448 0.57683 -2.06081 -23.2339 -0.243237 -3.53276 12.2895 -24.0263 1.80492 8.97023 -0.0 -0.0 0.0 0.0 0.0 
513.048892239 712.175 -1202.38134132 177.892823644 -55.8337673293 -176.470221525 -1.19668 -0.292868 -3.12366 -1.19125 -0.0936081 -3.13595 -1.1819 0.631669 -3.07316 -1.19505 0.138643 -3.13428 -6.18569 9.30462 10.4931 -5.89561 9.48962 12.2928 -0.0 0.0 -0.0 10.7669 -3.27363 21.412 -12.8345 -27.6268 57.4728 1.99188 -44.612 0.817243 1.55605 0.052221 -0.191873 -0.508422 0.656887 -3.11388 -0.0 0.0 -0.0 9.5762 3.58499 -18.8957 -32.5754 15.7813 -50.6806 0.717733 19.5725 -0.123799 23.331 -0.223915 2.95138 -0.0399649 -2.29932 -0.70088 0.0 0.0 0.0 -6.77268 8.36366 -3.05896 -2.75919 0.103732 0.4107 28.4804 -3.41516 -3.77732 -13.876 0.0 0.0 -0.0 0.0 -0.0 28.4422 0.355458 -1.69152 -18.871 -0.307364 -2.86654 12.6868 -22.6487 1.84831 9.01595 -0.0 -0.0 0.0 0.0 0.0 
523.431204026 705.857 -1198.03320207 179.337828694 -58.5876737685 -175.205801835 -1.08006 -0.229411 -3.24682 -1.0742 -0.0224544 -3.25483 -1.06869 0.722184 -3.17386 -1.08268 0.212147 -3.24799 -5.96537 9.8047 10.4537 -5.67678 10.3928 12.3349 -0.0 0.0 -0.0 10.8335 -3.39414 21.5594 -11.3328 -27.9003 57.4594 2.14554 -46.7389 0.927189 1.40079 0.0472452 -0.172666 -0.529406 -0.0914139 -3.57682 -0.0 0.0 -0.0 9.59657 3.044 -18.9262 -32.4796 15.5925 -51.2692 0.684057 18.7196 -0.112753 23.7044 -0.217676 2.99868 -0.000176428 -2.84274 -1.19211 0.0 0.0 0.0 -6.07336 8.84016 -3.89094 -2.06162 0.0793789 0.306413 27.2059 -1.9701 -3.62079 -13.8471 0.0 0.0 -0.0 0.0 -0.0 30.1537 0.192273 -1.47176 -15.8016 -0.322006 -2.39588 13.076 -21.6684 1.89408 9.07026 -0.0 -0.0 0.0 0.0 0.0 
530.648340499 694.319 -1188.42318269 -175.964455966 -61.9346469898 -171.062740896 -1.17661 -0.370614 -3.44489 -1.17002 -0.15079 -3.46146 -1.1557 0.649545 -3.40338 -1.17184 0.104229 -3.46317 -6.03016 10.3898 9.99454 -5.76633 11.8391 11.9827 -0.0 0.0 -0.0 10.7291 -2.54559 21.3017 -9.43547 -27.6193 56.8442 2.38521 -49.7501 1.10604 1.73758 0.0579732 -0.214347 -0.531451 -1.27424 -4.10113 -0.0 0.0 -0.0 9.42001 1.12531 -18.5037 -33.7406 15.7181 -51.8704 0.74725 20.3128 -0.133866 23.6671 -0.218314 2.99395 -0.165596 -2.0477 0.23863 0.0 0.0 0.0 -6.06504 9.25506 -4.39843 -3.45267 0.126679 0.514654 29.9424 -0.810241 -3.9105 -13.7718 0.0 0.0 -0.0 0.0 -0.0 33.063 0.102895 -1.89008 -11.8096 -0.303318 -1.78378 12.278 -20.2476 1.77306 8.36238 -0.0 -0.0 0.0 0.0 0.0 
530.781387571 694.319 -1189.6233602 -175.898009249 -62.4275432676 -170.987611918 -1.17661 -0.370614 -3.44489 -1.17002 -0.15079 -3.46146 -1.1557 0.649545 -3.40338 -1.17184 0.104229 -3.46317 -6.03016 10.3898 9.99454 -5.76633 11.8391 11.9827 -0.0 0.0 -0.0 10.7291 -2.54559 21.3017 -9.43547 -27.6193 56.8442 2.38521 -49.7501 1.10604 1.73758 0.0579732 -0.214347 -0.531451 -1.27424 -4.10113 -0.0 0.0 -0.0 9.42001 1.12531 -18.5037 -33.7406 15.7181 -51.8704 0.74725 20.3128 -0.133866 23.6671 -0.218314 2.99395 -0.165596 -2.0477 0.23863 0.0 0.0 0.0 -6.06504 9.25506 -4.39843 -3.45267 0.126679 0.514654 29.9424 -0.810241 -3.9105 -13.7718 0.0 0.0 -0.0 0.0 -0.0 33.063 0.102895 -1.89008 -11.8096 -0.303318 -1.78378 12.278 -20.2476 1.77306 8.36238 -0.0 -0.0 0.0 0.0 0.0 
530.867732181 694.319 -1190.45789879 -175.850357585 -62.7699833955 -170.933938615 -1.17661 -0.370614 -3.44489 -1.17002 -0.15079 -3.46146 -1.1557 0.649545 -3.40338 -1.17184 0.104229 -3.46317 -6.03016 10.3898 9.99454 -5.76633 11.8391 11.9827 -0.0 0.0 -0.0 10.7291 -2.54559 21.3017 -9.43547 -27.6193 56.8442 2.38521 -49.7501 1.10604 1.73758 0.0579732 -0.214347 -0.531451 -1.27424 -4.10113 -0.0 0.0 -0.0 9.42001 1.12531 -18.5037 -33.7406 15.7181 -51.8704 0.74725 20.3128 -0.133866 23.6671 -0.218314 2.99395 -0.165596 -2.0477 0.23863 0.0 0.0 0.0 -6.06504 9.25506 -4.39843 -3.45267 0.126679 0.514654 29.9424 -0.810241 -3.9105 -13.7718 0.0 0.0 -0.0 0.0 -0.0 33.063 0.102895 -1.89008 -11.8096 -0.303318 -1.78378 12.278 -20.2476 1.77306 8.36238 -0.0 -0.0 0.0 0.0 0.0 
590.155259077 705.877 -1184.82917638 -175.272898636 -61.7029640795 -174.686491893 -1.25714 -0.3246 -2.34731 -1.2541 -0.174619 -2.3632 -1.24429 0.37702 -2.33947 -1.25193 0.00292111 -2.36964 -1.99508 11.8887 10.0794 -1.68823 13.4727 12.1032 -0.0 0.0 -0.0 10.9624 -1.22795 21.7321 -10.9417 -18.3654 59.1135 3.61957 -60.8354 2.12555 1.00845 0.0344385 -0.124191 -0.446618 -11.5865 -7.95996 -0.0 0.0 -0.0 8.73642 -1.1579 -17.0347 -32.0979 15.1208 -50.9949 0.864347 23.179 -0.177263 32.3209 0.011194 4.07452 -1.66968 -8.66677 7.19281 0.0 0.0 0.0 -10.2905 9.78769 3.32618 -9.37949 0.271082 1.41233 39.385 -8.22702 -4.93482 -8.20126 0.0 0.0 -0.0 0.0 -0.0 33.547 2.73451 0.32686 -5.90593 -0.197719 -0.884421 12.6886 -6.84301 1.78636 7.5694 -0.0 -0.0 0.0 0.0 0.0 
